<?xml version="1.0" encoding="utf-8"?>
<!-- Generator: Adobe Illustrator 19.0.1, SVG Export Plug-In . SVG Version: 6.00 Build 0)  -->
<svg version="1.1" id="Слой_1" xmlns="http://www.w3.org/2000/svg" xmlns:xlink="http://www.w3.org/1999/xlink" x="0px" y="0px"
	 viewBox="0 0 119.1 56.7" style="enable-background:new 0 0 119.1 56.7;" xml:space="preserve">
<style type="text/css">
	.st0{fill:#C01718;}
	.st1{fill:#C01718;}
	.st2{fill:#99BB33;}
</style>
<g id="XMLID_1487_">
	<path id="XMLID_1905_" class="st0" d="M50.2,9.7c0,0-1.5-0.7-1-2.4s1.3-3.6,3.9-5.2s5.3-1.3,5.3-1.3s3-0.1,5.8,2.9
		c0,0,2.3,2,2.3,5.8s-2.3,6-2.3,6s-1.4,1.7-4.8,3c-3.4,1.3-3.1,1.4-5.3,2c0,0-1.2,0.5-1.1,1.8s1.5,1.6,1.5,1.6l9.9,0
		c0,0,2.1,0,2.1,2s-2,2-2,2H53.7c0,0-4.3,0-5.1-4.1s2.7-5.9,2.7-5.9s3.3-1.6,5.6-2.3c2.3-0.8,4.2-2.2,4.2-2.2s2.5-2,1.5-5.3
		c-1-3.3-4.1-3.5-4.1-3.5s-2.4-0.5-4.3,1.4c0,0-1,1-1.3,2.5C52.5,9.8,51.1,10.2,50.2,9.7z"/>
	<path id="XMLID_1897_" class="st1" d="M97.3,45.3c0,0-0.9-1-2.5-1.8l-30-13l0,0c-0.2-0.1-0.5-0.2-0.8-0.2c-1.1,0-1.9,0.9-1.9,1.9
		c0,0.8,0.4,1.4,1.1,1.7l0,0l0,0c0,0,0,0,0.1,0l29.9,13c0,0,2.5,1,1.5,3.7c0,0-0.6,1.4-2.2,1.4c-1.1,0-19.3,0-30.5,0
		c0,0-3.6,0-8.7,0c-11.2,0-29.4,0-30.5,0c-1.6,0-2.2-1.4-2.2-1.4C19.5,48.1,22,47,22,47l29.9-13c0,0,0,0,0.1,0l0,0l0,0
		c0.6-0.3,1.1-1,1.1-1.7c0-1.1-0.9-1.9-1.9-1.9c-0.3,0-0.6,0.1-0.8,0.2l0,0l-30,13c-1.7,0.7-2.5,1.8-2.5,1.8s-2.6,2.7-1,6.8
		c1.6,4.1,6.1,3.8,6.1,3.8h30.3h8.7h30.3c0,0,4.5,0.3,6.1-3.8C99.9,48,97.3,45.3,97.3,45.3z"/>
	<g id="XMLID_1282_">
		<g id="XMLID_1144_">
			<path id="XMLID_1230_" class="st2" d="M10.7,15.7c-0.5-0.6-1.9-1.6-2.3-1.8s0-0.6,0-0.6c1.4-1.1,1.8-2.3,1.8-2.3s1.3-2.6-0.2-4.8
				C8.4,4.1,4.8,4,2.8,4C0.9,4,1.2,6,1.2,6c0.1,0.1,0.4,16.6,0.4,17.7c0,1.1,0.7,1.4,1.3,1.4c0.6,0,1.7-0.1,4-0.7
				c2.4-0.7,3.5-1.9,3.5-1.9s1.2-1.1,1.4-3.1C12,17.4,11.2,16.4,10.7,15.7z M4.1,7.6c0,0-0.2-0.8,0.7-0.8C5.7,6.9,7.2,7,7.7,8
				c0.5,1-0.3,2.1-0.3,2.1s-1.1,1.4-2.5,2.1c0,0-0.7,0.4-0.7-0.5C4.2,10.9,4.1,7.6,4.1,7.6z M7.6,20.9c-0.8,0.5-2.7,1-2.7,1
				s-0.6,0.2-0.6-0.5c0-0.7,0-5.3,0-5.3S4.2,15.4,5,15.6c0.8,0.2,2.1,0.7,2.5,1c0.3,0.3,1.4,0.9,1.5,2.1C9,20,8.4,20.4,7.6,20.9z"/>
			<path id="XMLID_1158_" class="st2" d="M34.4,15.7c-0.5-0.6-1.9-1.6-2.3-1.8s0-0.6,0-0.6c1.4-1.1,1.8-2.3,1.8-2.3s1.3-2.6-0.2-4.8
				C32.1,4.1,28.5,4,26.6,4c-1.9,0-1.7,2-1.7,2c0.1,0.1,0.4,16.6,0.4,17.7c0,1.1,0.7,1.4,1.3,1.4c0.6,0,1.7-0.1,4-0.7
				c2.4-0.7,3.5-1.9,3.5-1.9s1.2-1.1,1.4-3.1C35.7,17.4,34.9,16.4,34.4,15.7z M27.8,7.6c0,0-0.2-0.8,0.7-0.8C29.4,6.9,30.9,7,31.4,8
				c0.5,1-0.3,2.1-0.3,2.1s-1.1,1.4-2.5,2.1c0,0-0.7,0.4-0.7-0.5C28,10.9,27.8,7.6,27.8,7.6z M31.3,20.9c-0.8,0.5-2.7,1-2.7,1
				s-0.6,0.2-0.6-0.5c0-0.7,0-5.3,0-5.3s-0.1-0.7,0.7-0.5c0.8,0.2,2.1,0.7,2.5,1c0.3,0.3,1.4,0.9,1.5,2.1
				C32.7,20,32.1,20.4,31.3,20.9z"/>
			<path id="XMLID_1223_" class="st2" d="M22.5,18.3c-0.1-1.6-0.9-3.8-1-4.7c-0.1-0.9-1.8-6.2-2.2-7.5c-0.4-1.4-1.1-1.6-1.1-1.6
				S18,4.2,17,4.6c-1,0.4-0.6,1.6-0.6,1.6l-2.2,10.2l-1.5,6.9c-0.2,1.5,1.1,1.6,1.1,1.6c1.3,0.3,1.7-1,1.7-1s0.7-3.4,0.8-3.8
				c0.1-0.4,0.5-0.3,0.5-0.3s2.1,0,2.6,0c0.5,0,0.6,0.5,0.6,0.5s0.3,2.3,0.4,3.3c0.1,1,0.5,1.4,0.5,1.4s0.8,0.7,1.6,0.2
				c0.8-0.5,0.6-1,0.7-2C23.1,22.1,22.7,19.9,22.5,18.3z M18.9,16.7c0,0-1.2,0-1.5,0c-0.3,0-0.2-0.6-0.2-0.6l0.7-3.1
				c0,0,0.1-0.3,0.4-0.3c0.3,0,0.4,0.3,0.4,0.3c0.1,0.1,0.6,2.7,0.7,3.2C19.3,16.7,18.9,16.7,18.9,16.7z"/>
			<path id="XMLID_904_" class="st2" d="M41.2,11.9c0,0,0.2,0.6,0.6,0.6c0.3,0,0.8-0.8,0.8-0.8s1.9-5,2-5.5s0.6-1.5,1.4-1.4
				c0.9,0,1.2,0.9,1.2,0.9s0.3,0.5-0.2,1.7s-1.3,3.4-1.9,4.5s-1.1,2.6-1.1,2.6l-0.8,1.8l-0.1,6.4l0,1c0,0,0.1,1.3-1.4,1.4
				c-1.5,0.1-1.3-1.7-1.3-1.7V16c0,0-2.3-3.8-2.5-4.4c0,0-1.5-3.9-1.6-4.7s-0.2-1.5,1-1.9s1.7,0.8,1.7,1.6
				C39.2,7.4,41.2,11.9,41.2,11.9z"/>
		</g>
		<g id="XMLID_1439_">
			<path id="XMLID_1467_" class="st2" d="M81.2,15.7c-0.5-0.6-1.9-1.6-2.3-1.8c-0.4-0.2,0-0.6,0-0.6c1.4-1.1,1.8-2.3,1.8-2.3
				s1.3-2.6-0.2-4.8C78.9,4.1,75.3,4,73.4,4c-1.9,0-1.7,2-1.7,2c0.1,0.1,0.4,16.6,0.4,17.7c0,1.1,0.7,1.4,1.3,1.4
				c0.6,0,1.7-0.1,4-0.7c2.4-0.7,3.5-1.9,3.5-1.9s1.2-1.1,1.4-3.1C82.5,17.4,81.7,16.4,81.2,15.7z M74.6,7.6c0,0-0.2-0.8,0.7-0.8
				C76.2,6.9,77.7,7,78.2,8c0.5,1-0.3,2.1-0.3,2.1s-1.1,1.4-2.5,2.1c0,0-0.7,0.4-0.7-0.5C74.8,10.9,74.6,7.6,74.6,7.6z M78.1,20.9
				c-0.8,0.5-2.7,1-2.7,1s-0.6,0.2-0.6-0.5c0-0.7,0-5.3,0-5.3s-0.1-0.7,0.7-0.5c0.8,0.2,2.1,0.7,2.5,1c0.3,0.3,1.4,0.9,1.5,2.1
				C79.5,20,78.9,20.4,78.1,20.9z"/>
			<path id="XMLID_1461_" class="st2" d="M105,15.7c-0.5-0.6-1.9-1.6-2.3-1.8c-0.4-0.2,0-0.6,0-0.6c1.4-1.1,1.8-2.3,1.8-2.3
				s1.3-2.6-0.2-4.8C102.6,4.1,99,4,97.1,4c-1.9,0-1.7,2-1.7,2c0.1,0.1,0.4,16.6,0.4,17.7c0,1.1,0.7,1.4,1.3,1.4
				c0.6,0,1.7-0.1,4-0.7c2.4-0.7,3.5-1.9,3.5-1.9s1.2-1.1,1.4-3.1C106.2,17.4,105.4,16.4,105,15.7z M98.4,7.6c0,0-0.2-0.8,0.7-0.8
				c0.9,0.1,2.4,0.1,2.9,1.2c0.5,1-0.3,2.1-0.3,2.1s-1.1,1.4-2.5,2.1c0,0-0.7,0.4-0.7-0.5C98.5,10.9,98.4,7.6,98.4,7.6z M101.8,20.9
				c-0.8,0.5-2.7,1-2.7,1s-0.6,0.2-0.6-0.5c0-0.7,0-5.3,0-5.3s-0.1-0.7,0.7-0.5c0.8,0.2,2.1,0.7,2.5,1c0.3,0.3,1.4,0.9,1.5,2.1
				C103.3,20,102.6,20.4,101.8,20.9z"/>
			<path id="XMLID_1448_" class="st2" d="M93.1,18.3c-0.1-1.6-0.9-3.8-1-4.7C92,12.6,90.3,7.4,89.9,6c-0.4-1.4-1.1-1.6-1.1-1.6
				s-0.3-0.2-1.2,0.2c-1,0.4-0.6,1.6-0.6,1.6l-2.2,10.2l-1.5,6.9c-0.2,1.5,1.1,1.6,1.1,1.6c1.3,0.3,1.7-1,1.7-1s0.7-3.4,0.8-3.8
				s0.5-0.3,0.5-0.3s2.1,0,2.6,0c0.5,0,0.6,0.5,0.6,0.5s0.3,2.3,0.4,3.3c0.1,1,0.5,1.4,0.5,1.4s0.8,0.7,1.6,0.2c0.8-0.5,0.6-1,0.7-2
				C93.7,22.1,93.2,19.9,93.1,18.3z M89.4,16.7c0,0-1.2,0-1.5,0c-0.3,0-0.2-0.6-0.2-0.6l0.7-3.1c0,0,0.1-0.3,0.4-0.3
				c0.3,0,0.4,0.3,0.4,0.3c0.1,0.1,0.6,2.7,0.7,3.2C89.9,16.7,89.4,16.7,89.4,16.7z"/>
			<path id="XMLID_1442_" class="st2" d="M111.7,11.9c0,0,0.2,0.6,0.6,0.6c0.3,0,0.8-0.8,0.8-0.8s1.9-5,2-5.5
				c0.2-0.5,0.6-1.5,1.4-1.4c0.9,0,1.2,0.9,1.2,0.9s0.3,0.5-0.2,1.7s-1.3,3.4-1.9,4.5c-0.6,1.1-1.1,2.6-1.1,2.6l-0.8,1.8l-0.1,6.4
				l0,1c0,0,0.1,1.3-1.4,1.4c-1.5,0.1-1.3-1.7-1.3-1.7V16c0,0-2.3-3.8-2.5-4.4c0,0-1.5-3.9-1.6-4.7c-0.1-0.8-0.2-1.5,1-1.9
				c1.3-0.4,1.7,0.8,1.7,1.6C109.7,7.4,111.7,11.9,111.7,11.9z"/>
		</g>
	</g>
</g>
</svg>
