<?xml version="1.0" encoding="utf-8"?>
<!-- Generator: Adobe Illustrator 19.0.1, SVG Export Plug-In . SVG Version: 6.00 Build 0)  -->
<svg version="1.1" id="Слой_1" xmlns="http://www.w3.org/2000/svg" xmlns:xlink="http://www.w3.org/1999/xlink" x="0px" y="0px"
	 viewBox="0 0 119.1 56.7" style="enable-background:new 0 0 119.1 56.7;" xml:space="preserve">
<style type="text/css">
	.st0{fill:#888888;}
</style>
<g id="XMLID_1487_">
	<g>
		<path id="XMLID_225_" class="st0" d="M50.2,23.8c0,0-1.5-0.7-1-2.4c0.5-1.7,1.3-3.6,3.9-5.2s5.3-1.3,5.3-1.3s3-0.1,5.8,2.9
			c0,0,2.3,2,2.3,5.8s-2.3,6-2.3,6s-1.4,1.7-4.8,3c-3.4,1.3-3.1,1.4-5.3,2c0,0-1.2,0.5-1.1,1.8s1.5,1.6,1.5,1.6l9.9,0
			c0,0,2.1,0,2.1,2s-2,2-2,2H53.7c0,0-4.3,0-5.1-4.1s2.7-5.9,2.7-5.9s3.3-1.6,5.6-2.3c2.3-0.8,4.2-2.2,4.2-2.2s2.5-2,1.5-5.3
			c-1-3.3-4.1-3.5-4.1-3.5s-2.4-0.5-4.3,1.4c0,0-1,1-1.3,2.5C52.5,23.9,51.1,24.2,50.2,23.8z"/>
		<g id="XMLID_198_">
			<g id="XMLID_212_">
				<path id="XMLID_221_" class="st0" d="M10.7,29.8c-0.5-0.6-1.9-1.6-2.3-1.8s0-0.6,0-0.6c1.4-1.1,1.8-2.3,1.8-2.3s1.3-2.6-0.2-4.8
					c-1.6-2.1-5.2-2.2-7.1-2.2c-1.9,0-1.7,2-1.7,2c0.1,0.1,0.4,16.6,0.4,17.7c0,1.1,0.7,1.4,1.3,1.4c0.6,0,1.7-0.1,4-0.7
					c2.4-0.7,3.5-1.9,3.5-1.9s1.2-1.1,1.4-3.1C12,31.4,11.2,30.5,10.7,29.8z M4.1,21.7c0,0-0.2-0.8,0.7-0.8C5.7,21,7.2,21,7.7,22.1
					c0.5,1-0.3,2.1-0.3,2.1s-1.1,1.4-2.5,2.1c0,0-0.7,0.4-0.7-0.5C4.2,25,4.1,21.7,4.1,21.7z M7.6,35c-0.8,0.5-2.7,1-2.7,1
					s-0.6,0.2-0.6-0.5c0-0.7,0-5.3,0-5.3S4.2,29.5,5,29.7c0.8,0.2,2.1,0.7,2.5,1C7.8,31,8.9,31.6,9,32.8C9,34,8.4,34.5,7.6,35z"/>
				<path id="XMLID_217_" class="st0" d="M34.4,29.8c-0.5-0.6-1.9-1.6-2.3-1.8s0-0.6,0-0.6c1.4-1.1,1.8-2.3,1.8-2.3s1.3-2.6-0.2-4.8
					c-1.6-2.1-5.2-2.2-7.1-2.2c-1.9,0-1.7,2-1.7,2c0.1,0.1,0.4,16.6,0.4,17.7c0,1.1,0.7,1.4,1.3,1.4c0.6,0,1.7-0.1,4-0.7
					c2.4-0.7,3.5-1.9,3.5-1.9s1.2-1.1,1.4-3.1C35.7,31.4,34.9,30.5,34.4,29.8z M27.8,21.7c0,0-0.2-0.8,0.7-0.8
					c0.9,0.1,2.4,0.1,2.9,1.2c0.5,1-0.3,2.1-0.3,2.1s-1.1,1.4-2.5,2.1c0,0-0.7,0.4-0.7-0.5C28,25,27.8,21.7,27.8,21.7z M31.3,35
					c-0.8,0.5-2.7,1-2.7,1s-0.6,0.2-0.6-0.5c0-0.7,0-5.3,0-5.3s-0.1-0.7,0.7-0.5c0.8,0.2,2.1,0.7,2.5,1c0.3,0.3,1.4,0.9,1.5,2.1
					C32.7,34,32.1,34.5,31.3,35z"/>
				<path id="XMLID_214_" class="st0" d="M22.5,32.3c-0.1-1.6-0.9-3.8-1-4.7c-0.1-0.9-1.8-6.2-2.2-7.5c-0.4-1.4-1.1-1.6-1.1-1.6
					S18,18.2,17,18.6c-1,0.4-0.6,1.6-0.6,1.6l-2.2,10.2l-1.5,6.9c-0.2,1.5,1.1,1.6,1.1,1.6c1.3,0.3,1.7-1,1.7-1s0.7-3.4,0.8-3.8
					c0.1-0.4,0.5-0.3,0.5-0.3s2.1,0,2.6,0s0.6,0.5,0.6,0.5s0.3,2.3,0.4,3.3s0.5,1.4,0.5,1.4s0.8,0.7,1.6,0.2c0.8-0.5,0.6-1,0.7-2
					C23.1,36.2,22.7,34,22.5,32.3z M18.9,30.8c0,0-1.2,0-1.5,0c-0.3,0-0.2-0.6-0.2-0.6l0.7-3.1c0,0,0.1-0.3,0.4-0.3s0.4,0.3,0.4,0.3
					c0.1,0.1,0.6,2.7,0.7,3.2C19.3,30.7,18.9,30.8,18.9,30.8z"/>
				<path id="XMLID_213_" class="st0" d="M41.2,26c0,0,0.2,0.6,0.6,0.6c0.3,0,0.8-0.8,0.8-0.8s1.9-5,2-5.5c0.2-0.5,0.6-1.5,1.4-1.4
					c0.9,0,1.2,0.9,1.2,0.9s0.3,0.5-0.2,1.7s-1.3,3.4-1.9,4.5s-1.1,2.6-1.1,2.6l-0.8,1.8l-0.1,6.4l0,1c0,0,0.1,1.3-1.4,1.4
					c-1.5,0.1-1.3-1.7-1.3-1.7v-7.4c0,0-2.3-3.8-2.5-4.4c0,0-1.5-3.9-1.6-4.7c-0.1-0.8-0.2-1.5,1-1.9s1.7,0.8,1.7,1.6
					C39.2,21.5,41.2,26,41.2,26z"/>
			</g>
			<g id="XMLID_199_">
				<path id="XMLID_208_" class="st0" d="M81.2,29.8c-0.5-0.6-1.9-1.6-2.3-1.8c-0.4-0.2,0-0.6,0-0.6c1.4-1.1,1.8-2.3,1.8-2.3
					s1.3-2.6-0.2-4.8c-1.6-2.1-5.2-2.2-7.1-2.2c-1.9,0-1.7,2-1.7,2c0.1,0.1,0.4,16.6,0.4,17.7c0,1.1,0.7,1.4,1.3,1.4
					c0.6,0,1.7-0.1,4-0.7c2.4-0.7,3.5-1.9,3.5-1.9s1.2-1.1,1.4-3.1C82.5,31.4,81.7,30.5,81.2,29.8z M74.6,21.7c0,0-0.2-0.8,0.7-0.8
					c0.9,0.1,2.4,0.1,2.9,1.2c0.5,1-0.3,2.1-0.3,2.1s-1.1,1.4-2.5,2.1c0,0-0.7,0.4-0.7-0.5C74.8,25,74.6,21.7,74.6,21.7z M78.1,35
					c-0.8,0.5-2.7,1-2.7,1s-0.6,0.2-0.6-0.5c0-0.7,0-5.3,0-5.3s-0.1-0.7,0.7-0.5c0.8,0.2,2.1,0.7,2.5,1c0.3,0.3,1.4,0.9,1.5,2.1
					C79.5,34,78.9,34.5,78.1,35z"/>
				<path id="XMLID_204_" class="st0" d="M105,29.8c-0.5-0.6-1.9-1.6-2.3-1.8c-0.4-0.2,0-0.6,0-0.6c1.4-1.1,1.8-2.3,1.8-2.3
					s1.3-2.6-0.2-4.8c-1.6-2.1-5.2-2.2-7.1-2.2c-1.9,0-1.7,2-1.7,2c0.1,0.1,0.4,16.6,0.4,17.7c0,1.1,0.7,1.4,1.3,1.4
					c0.6,0,1.7-0.1,4-0.7c2.4-0.7,3.5-1.9,3.5-1.9s1.2-1.1,1.4-3.1C106.2,31.4,105.4,30.5,105,29.8z M98.4,21.7c0,0-0.2-0.8,0.7-0.8
					c0.9,0.1,2.4,0.1,2.9,1.2c0.5,1-0.3,2.1-0.3,2.1s-1.1,1.4-2.5,2.1c0,0-0.7,0.4-0.7-0.5C98.5,25,98.4,21.7,98.4,21.7z M101.8,35
					c-0.8,0.5-2.7,1-2.7,1s-0.6,0.2-0.6-0.5c0-0.7,0-5.3,0-5.3s-0.1-0.7,0.7-0.5c0.8,0.2,2.1,0.7,2.5,1c0.3,0.3,1.4,0.9,1.5,2.1
					C103.3,34,102.6,34.5,101.8,35z"/>
				<path id="XMLID_201_" class="st0" d="M93.1,32.3c-0.1-1.6-0.9-3.8-1-4.7c-0.1-0.9-1.8-6.2-2.2-7.5c-0.4-1.4-1.1-1.6-1.1-1.6
					s-0.3-0.2-1.2,0.2c-1,0.4-0.6,1.6-0.6,1.6l-2.2,10.2l-1.5,6.9c-0.2,1.5,1.1,1.6,1.1,1.6c1.3,0.3,1.7-1,1.7-1s0.7-3.4,0.8-3.8
					s0.5-0.3,0.5-0.3s2.1,0,2.6,0c0.5,0,0.6,0.5,0.6,0.5s0.3,2.3,0.4,3.3c0.1,1,0.5,1.4,0.5,1.4s0.8,0.7,1.6,0.2
					c0.8-0.5,0.6-1,0.7-2C93.7,36.2,93.2,34,93.1,32.3z M89.4,30.8c0,0-1.2,0-1.5,0c-0.3,0-0.2-0.6-0.2-0.6l0.7-3.1
					c0,0,0.1-0.3,0.4-0.3c0.3,0,0.4,0.3,0.4,0.3c0.1,0.1,0.6,2.7,0.7,3.2C89.9,30.7,89.4,30.8,89.4,30.8z"/>
				<path id="XMLID_200_" class="st0" d="M111.7,26c0,0,0.2,0.6,0.6,0.6c0.3,0,0.8-0.8,0.8-0.8s1.9-5,2-5.5c0.2-0.5,0.6-1.5,1.4-1.4
					c0.9,0,1.2,0.9,1.2,0.9s0.3,0.5-0.2,1.7s-1.3,3.4-1.9,4.5c-0.6,1.1-1.1,2.6-1.1,2.6l-0.8,1.8l-0.1,6.4l0,1c0,0,0.1,1.3-1.4,1.4
					c-1.5,0.1-1.3-1.7-1.3-1.7v-7.4c0,0-2.3-3.8-2.5-4.4c0,0-1.5-3.9-1.6-4.7c-0.1-0.8-0.2-1.5,1-1.9c1.3-0.4,1.7,0.8,1.7,1.6
					C109.7,21.5,111.7,26,111.7,26z"/>
			</g>
		</g>
	</g>
</g>
</svg>
