<?xml version="1.0" encoding="utf-8"?>
<!-- Generator: Adobe Illustrator 19.0.1, SVG Export Plug-In . SVG Version: 6.00 Build 0)  -->
<svg version="1.1" id="Слой_1" xmlns="http://www.w3.org/2000/svg" xmlns:xlink="http://www.w3.org/1999/xlink" x="0px" y="0px"
	 viewBox="0 0 15 15" style="enable-background:new 0 0 15 15;" xml:space="preserve">
<style type="text/css">
	.st0{fill-rule:evenodd;clip-rule:evenodd;fill:#FFFFFF;}
</style>
<path class="st0" d="M14.1,5.2H9.8V0.9c0-0.3-0.2-0.5-0.5-0.5H5.7c-0.3,0-0.5,0.2-0.5,0.5v4.3H0.9c-0.3,0-0.5,0.2-0.5,0.5v3.6
	c0,0.3,0.2,0.5,0.5,0.5h4.3v4.3c0,0.3,0.2,0.5,0.5,0.5h3.6c0.3,0,0.5-0.2,0.5-0.5V9.8h4.3c0.3,0,0.5-0.2,0.5-0.5V5.7
	C14.6,5.4,14.3,5.2,14.1,5.2z"/>
</svg>
