<?xml version="1.0" encoding="utf-8"?>
<!-- Generator: Adobe Illustrator 19.0.1, SVG Export Plug-In . SVG Version: 6.00 Build 0)  -->
<svg version="1.1" id="Слой_1" xmlns="http://www.w3.org/2000/svg" xmlns:xlink="http://www.w3.org/1999/xlink" x="0px" y="0px"
	 viewBox="0 0 51 43" style="enable-background:new 0 0 51 43;" xml:space="preserve">
<style type="text/css">
	.st0{fill:#B2B2B2;}
</style>
<g>
	<g>
		<path class="st0" d="M0.1,12.6L0,13.1l5.7,8l5.1-1.9c-0.4,3.7-1.1,11.7,0.4,17.1c0.4,2.4,2.3,6.5,7.3,6.8l0,0h0.1
			c0.2,0,0.3,0,0.5,0s0.4,0,0.7,0h11.4c0.2,0,0.5,0,0.7,0c0.2,0,0.3,0,0.5,0h0.2l0,0c4.4-0.3,6.4-3.6,7-6l0.2-0.7
			c1.6-5.4,0.9-13.4,0.4-17.2l5.1,1.9l5.7-8l-0.1-0.5c-0.5-2.9-3.1-5.9-7.9-8.8c-3.4-2.1-6.6-3.3-6.8-3.4l-1-0.4l-0.5,0.9
			c-2,3.5-8.7,3.6-9.1,3.6l0,0h-0.5c-1.5-0.1-6.9-0.4-8.7-3.6L15.9,0l-1,0.4c-0.1,0.1-3.4,1.3-6.8,3.4C3.3,6.7,0.6,9.6,0.1,12.6
			L0.1,12.6z M14.8,3.1c2.4,3,7.1,3.7,9.4,3.9v33.5h-3.3c-0.5-3.7-3.1-5.9-7.3-5.9c-0.1,0-0.1,0-0.2,0c-1.5-6.7,0.2-17.1,0.2-17.3
			l0.3-2.1l-7.3,2.8l-3.9-5.6C3.9,8.6,11.1,4.7,14.8,3.1L14.8,3.1z M19.8,41.7L19.8,41.7z M14.1,37.1c2.5,0.1,3.9,1.2,4.3,3.3
			c-0.1,0-0.2,0-0.3,0C15.7,40,14.6,38.5,14.1,37.1C14.1,37.2,14.1,37.2,14.1,37.1L14.1,37.1z M48.4,12.5l-3.9,5.6l-7.3-2.8l0.3,2.1
			c0,0.1,1.7,10.6,0.2,17.2c-0.1,0-0.2,0-0.3,0c-4.1,0-6.7,2.2-7.2,5.9h-3.3V7c2.3-0.2,7-0.8,9.4-3.9C40,4.7,47.2,8.5,48.4,12.5
			L48.4,12.5z M32.9,40.4c-0.1,0-0.1,0-0.2,0c0.4-2.1,1.8-3.2,4.2-3.3c0,0,0,0.1-0.1,0.2C36.3,38.5,35.2,40.1,32.9,40.4L32.9,40.4z"
			/>
	</g>
</g>
</svg>
