<?xml version="1.0" encoding="utf-8"?>
<!-- Generator: Adobe Illustrator 19.0.1, SVG Export Plug-In . SVG Version: 6.00 Build 0)  -->
<svg version="1.1" id="Слой_1" xmlns="http://www.w3.org/2000/svg" xmlns:xlink="http://www.w3.org/1999/xlink" x="0px" y="0px"
	 viewBox="0 0 41 44" style="enable-background:new 0 0 41 44;" xml:space="preserve">
<style type="text/css">
	.st0{fill:#B9B9B9;}
</style>
<path class="st0" d="M40.7,10.4c0-0.2,0-0.3-0.1-0.5c-0.1-0.3-0.4-0.5-0.8-0.6L21,0.1c-0.3-0.1-0.7-0.1-1,0L0.9,9.4
	c-0.4,0.2-0.6,0.5-0.6,1v23.3c0,0.4,0.2,0.8,0.6,1L20,43.9c0,0,0,0,0,0c0,0,0.1,0,0.1,0c0,0,0,0,0,0l0.1,0c0,0,0,0,0,0
	c0,0,0.1,0,0.1,0h0c0,0,0.1,0,0.1,0c0,0,0.1,0,0.1,0h0c0,0,0.1,0,0.1,0c0,0,0,0,0,0l0.1,0c0,0,0,0,0,0c0,0,0.1,0,0.1,0c0,0,0,0,0,0
	l19.1-9.3c0.4-0.2,0.6-0.6,0.6-1L40.7,10.4C40.7,10.4,40.7,10.4,40.7,10.4L40.7,10.4z M20.5,2.4l16.6,8l-6.1,3l-16.6-8L20.5,2.4z
	 M20.5,18.4l-16.6-8l7.9-3.8l16.6,8L20.5,18.4z M2.5,12.2l16.9,8.2v20.7L2.5,32.9V12.2z M21.6,41.1V20.4l7.9-3.8v5.4
	c0,0.6,0.5,1.1,1.1,1.1c0.6,0,1.1-0.5,1.1-1.1v-6.5l6.8-3.3v20.7L21.6,41.1z M21.6,41.1"/>
</svg>
