<?xml version="1.0" encoding="utf-8"?>
<!-- Generator: Adobe Illustrator 19.0.1, SVG Export Plug-In . SVG Version: 6.00 Build 0)  -->
<svg version="1.1" id="Слой_1" xmlns="http://www.w3.org/2000/svg" xmlns:xlink="http://www.w3.org/1999/xlink" x="0px" y="0px"
	 viewBox="0 0 48 52" style="enable-background:new 0 0 48 52;" xml:space="preserve">
<style type="text/css">
	.st0{fill:#A9A8A7;}
</style>
<g>
	<path class="st0" d="M47.5,25.9c0-3.6-3.6-6.7-9.1-8.8v2.7c3.6,1.6,5.8,3.7,5.8,6.1c0,4.8-9.1,8.8-20.3,8.8S3.6,30.8,3.6,25.9
		c0-1.7,1.2-3.3,3.2-4.7v-3c-3.9,1.9-6.3,4.5-6.5,7.4l0,0v16.1h0.1C1.3,47.5,11.5,52,24,52c12.3,0,22.4-4.4,23.6-10.1h0.1L47.5,25.9
		L47.5,25.9z M23.8,49.7c-11.2,0-20.3-3.9-20.3-8.8c0-0.4,0.1-0.8,0.2-1.1c0,0,0,0,0-0.1C7.9,42.9,15.3,45,23.9,45v-2.4
		c-11.2,0-20.3-3.9-20.3-8.8c0-0.1,0-0.2,0-0.3l0,0v-2c4.1,3.3,11.7,5.4,20.3,5.4s16.2-2.2,20.3-5.4v1.8c0,0,0,0-0.1,0
		c0,0.2,0.1,0.3,0.1,0.5c0,2.4-2.3,4.6-6,6.2v2.6c2.4-0.9,4.4-1.9,6-3.2v0.3c0,0.1-0.1,0.1-0.1,0.2c0.1,0.3,0.1,0.5,0.1,0.8
		C44.2,45.8,35.1,49.7,23.8,49.7z"/>
	<path class="st0" d="M26.5,17.3c1.7,0.1,3.3,0.3,4.9,0.6v-2.4c-1.6-0.2-3.2-0.4-4.9-0.5V17.3z"/>
	<path class="st0" d="M14.5,18.1c1.4-0.3,3-0.6,4.6-0.7V15c-1.6,0.2-3.2,0.4-4.6,0.7V18.1z"/>
	<path class="st0" d="M21.6,11.5c0,0.1-0.1,0.2-0.1,0.3v14.3c0,0.7,0.6,1.3,1.3,1.3s1.3-0.6,1.3-1.3V11.8c0-0.1,0-0.2-0.1-0.3
		c1.7-0.5,3-2,3-3.7V7.7C27.5,5.8,22.7,0,22.7,0s-4.5,5.4-4.3,7.5c0,0.1,0,0.1,0,0.2C18.5,9.5,19.8,11,21.6,11.5z M20.8,6.5l2-3.4
		l1.9,3.4l0,0c0.2,0.3,0.4,0.7,0.4,1.2c0,1.2-1,2.2-2.3,2.2s-2.3-1-2.3-2.2C20.4,7.2,20.6,6.8,20.8,6.5L20.8,6.5z"/>
	<path class="st0" d="M33.8,15.6L33.8,15.6v7.3c0,0.7,0.6,1.3,1.3,1.3s1.3-0.6,1.3-1.3v-7.3l0,0c1.7-0.5,2.9-2,3-3.7v-0.1
		c0.5-1.9-4.3-7.7-4.3-7.7s-4.5,5.4-4.3,7.5c0,0.1,0,0.1,0,0.2C30.8,13.6,32,15.1,33.8,15.6z M33.1,10.6l2-3.4l1.9,3.4l0,0
		c0.2,0.3,0.4,0.7,0.4,1.2c0,1.2-1,2.2-2.3,2.2s-2.3-1-2.3-2.2C32.7,11.3,32.8,11,33.1,10.6L33.1,10.6z"/>
	<path class="st0" d="M9.4,14.6v9.3c0,0.7,0.6,1.3,1.3,1.3s1.3-0.6,1.3-1.3v-9.3c1.7-0.5,2.9-2,3-3.7v-0.1c0.5-1.9-4.3-7.7-4.3-7.7
		s-4.5,5.4-4.3,7.5c0,0.1,0,0.1,0,0.2C6.4,12.6,7.7,14.1,9.4,14.6z M8.7,9.6l2-3.4l1.9,3.4l0,0c0.2,0.3,0.4,0.7,0.4,1.2
		c0,1.2-1,2.2-2.3,2.2s-2.3-1-2.3-2.2C8.3,10.3,8.5,10,8.7,9.6L8.7,9.6z"/>
</g>
</svg>
