<?xml version="1.0" encoding="utf-8"?>
<!-- Generator: Adobe Illustrator 19.0.1, SVG Export Plug-In . SVG Version: 6.00 Build 0)  -->
<svg version="1.1" id="Слой_1" xmlns="http://www.w3.org/2000/svg" xmlns:xlink="http://www.w3.org/1999/xlink" x="0px" y="0px"
	 viewBox="0 0 28.4 28.4" style="enable-background:new 0 0 28.4 28.4;" xml:space="preserve">
<style type="text/css">
	.st0{fill:#828282;}
</style>
<g>
	<g>
		<path class="st0" d="M23.4,4.9C20.9,2.4,17.6,1,14.1,1S7.3,2.4,4.8,4.9C2.4,7.3,1,10.6,1,14.1s1.4,6.8,3.8,9.3
			c2.5,2.5,5.8,3.8,9.3,3.8s6.8-1.4,9.3-3.8c2.5-2.5,3.8-5.8,3.8-9.3S25.9,7.3,23.4,4.9L23.4,4.9z M26.1,13.6H21c0-2-0.3-4-0.8-5.7
			c1-0.5,1.9-1.1,2.7-1.9C24.7,8,25.9,10.6,26.1,13.6L26.1,13.6z M14.7,14.7h5.1c0,1.9-0.3,3.7-0.7,5.2c-1.4-0.6-2.8-0.9-4.3-0.9
			V14.7z M22,5.2c-0.7,0.6-1.4,1.1-2.2,1.5c-0.2-0.6-0.4-1.1-0.7-1.6c-0.5-1-1.1-1.8-1.7-2.5C19.1,3.1,20.7,4,22,5.2L22,5.2z
			 M14.7,2.4C16,2.6,17.1,3.8,18,5.6c0.3,0.5,0.5,1,0.7,1.6c-1.3,0.5-2.6,0.8-4,0.9V2.4z M19.1,8.3c0.4,1.6,0.7,3.4,0.7,5.2h-5.1
			V9.3C16.2,9.2,17.7,8.9,19.1,8.3L19.1,8.3z M13.5,13.6H8.5c0-1.9,0.3-3.6,0.7-5.2c1.4,0.6,2.8,0.9,4.3,0.9L13.5,13.6L13.5,13.6z
			 M13.6,2.4v5.7c-1.4-0.1-2.7-0.4-4-0.9c0.2-0.6,0.4-1.1,0.7-1.6C11.2,3.8,12.3,2.6,13.6,2.4L13.6,2.4z M10.9,2.6
			c-0.6,0.6-1.2,1.5-1.7,2.5c-0.3,0.5-0.5,1-0.7,1.6C7.7,6.3,7,5.8,6.3,5.2C7.6,4,9.2,3.1,10.9,2.6L10.9,2.6z M5.4,6
			c0.8,0.7,1.7,1.4,2.7,1.9c-0.5,1.7-0.8,3.7-0.8,5.7H2.2C2.3,10.6,3.5,8,5.4,6L5.4,6z M2.2,14.7h5.1c0,2,0.3,4,0.8,5.7
			c-1,0.5-1.9,1.1-2.7,1.9C3.5,20.3,2.3,17.7,2.2,14.7L2.2,14.7z M6.3,23.2C7,22.6,7.7,22,8.5,21.6c0.2,0.6,0.4,1.1,0.7,1.6
			c0.5,1,1.1,1.8,1.7,2.5C9.2,25.2,7.6,24.3,6.3,23.2L6.3,23.2z M13.6,25.9c-1.2-0.3-2.4-1.4-3.3-3.2c-0.2-0.5-0.5-1-0.7-1.6
			c1.3-0.5,2.6-0.8,4-0.9V25.9z M9.2,20c-0.4-1.6-0.7-3.4-0.7-5.2h5.1V19C12,19.1,10.6,19.4,9.2,20L9.2,20z M14.7,25.9v-5.7
			c1.4,0.1,2.7,0.4,4,0.9c-0.2,0.6-0.4,1.1-0.7,1.6C17.1,24.5,16,25.6,14.7,25.9L14.7,25.9z M17.4,25.7c0.6-0.6,1.2-1.5,1.7-2.5
			c0.3-0.5,0.5-1,0.7-1.6c0.8,0.4,1.5,0.9,2.2,1.5C20.7,24.3,19.1,25.2,17.4,25.7L17.4,25.7z M22.9,22.3c-0.8-0.7-1.7-1.4-2.7-1.9
			c0.5-1.7,0.8-3.7,0.8-5.7h5.1C25.9,17.7,24.7,20.3,22.9,22.3L22.9,22.3z M22.9,22.3"/>
	</g>
</g>
</svg>
