<?xml version="1.0" encoding="utf-8"?>
<!-- Generator: Adobe Illustrator 19.0.1, SVG Export Plug-In . SVG Version: 6.00 Build 0)  -->
<svg version="1.1" id="Слой_1" xmlns="http://www.w3.org/2000/svg" xmlns:xlink="http://www.w3.org/1999/xlink" x="0px" y="0px"
	 viewBox="0 0 22.7 22.7" style="enable-background:new 0 0 22.7 22.7;" xml:space="preserve">
<style type="text/css">
	.st0{fill:#B4B4B3;}
</style>
<path class="st0" d="M19.4,9c0-2.4-2-4.3-4.4-4.3c-1.6,0-2.9,0.8-3.7,2.1l0,0c-0.8-1.3-2.1-2.1-3.7-2.1c-2.4,0-4.4,1.9-4.4,4.3
	c0,0.8,0.2,1.6,0.7,2.2c0,0,0,0,0,0c0,0.1,0.1,0.1,0.1,0.2c0.6,0.9,3,3,4.9,4.6l0,0l0,0c0.7,0.6,1.4,1.1,1.8,1.5l0,0l0.6,0.5
	c0,0,0.1-0.1,0.3-0.2l0,0l0,0c1.3-1.1,6.7-5.4,7.1-6.6l0,0C19.2,10.6,19.4,9.8,19.4,9z"/>
</svg>
