<?xml version="1.0" encoding="utf-8"?>
<!-- Generator: Adobe Illustrator 19.0.1, SVG Export Plug-In . SVG Version: 6.00 Build 0)  -->
<svg version="1.1" id="Слой_1" xmlns="http://www.w3.org/2000/svg" xmlns:xlink="http://www.w3.org/1999/xlink" x="0px" y="0px"
	 viewBox="0 0 30 46" style="enable-background:new 0 0 30 46;" xml:space="preserve">
<style type="text/css">
	.st0{fill:#BABABA;}
</style>
<g>
	<path class="st0" d="M29.9,15.1c0-8.3-6.7-15-14.9-15S0.1,6.8,0.1,15.1c0,2.3,0.6,4.6,1.5,6.5l0,0l0.1,0.3c0.1,0.3,0.3,0.6,0.5,0.8
		l1.7,3.2L15,45.9l9.4-17l3.5-6.3c0.2-0.3,0.3-0.5,0.5-0.8l0.1-0.3l0,0C29.4,19.6,29.9,17.4,29.9,15.1z M24.6,22.1L15,39.4L5.4,22.1
		c-1.4-1.9-2.2-4.3-2.2-6.9C3.2,8.8,8.5,3.4,15,3.4s11.8,5.3,11.8,11.8C26.8,17.8,26,20.1,24.6,22.1z"/>
	<path class="st0" d="M15,7.6c-4.1,0-7.4,3.3-7.4,7.5s3.3,7.5,7.4,7.5s7.4-3.3,7.4-7.5S19.1,7.6,15,7.6z M15,20.1
		c-2.8,0-5-2.3-5-5.1s2.3-5.1,5-5.1c2.8,0,5,2.3,5,5.1C20.1,17.9,17.8,20.1,15,20.1z"/>
</g>
</svg>
