<?xml version="1.0" encoding="utf-8"?>
<!-- Generator: Adobe Illustrator 19.0.1, SVG Export Plug-In . SVG Version: 6.00 Build 0)  -->
<svg version="1.1" id="Слой_1" xmlns="http://www.w3.org/2000/svg" xmlns:xlink="http://www.w3.org/1999/xlink" x="0px" y="0px"
	 viewBox="0 0 28.4 28.4" style="enable-background:new 0 0 28.4 28.4;" xml:space="preserve">
<style type="text/css">
	.st0{fill:#6E6E6E;}
</style>
<g>
	<g>
		<path class="st0" d="M24.9,24.5c0.6,0,1.1-0.2,1.5-0.6L19,16.5c-0.2,0.1-0.4,0.3-0.5,0.4c-0.6,0.4-1,0.7-1.4,1
			c-0.3,0.2-0.8,0.5-1.4,0.7c-0.6,0.2-1.1,0.4-1.6,0.4h0c-0.5,0-1-0.1-1.6-0.4c-0.6-0.2-1-0.5-1.4-0.7c-0.3-0.2-0.8-0.5-1.4-1
			c-0.2-0.1-0.3-0.2-0.5-0.4l-7.4,7.4c0.4,0.4,0.9,0.6,1.5,0.6H24.9z M24.9,24.5"/>
		<path class="st0" d="M2.6,11.8c-0.6-0.4-1-0.8-1.5-1.3v11.3l6.5-6.5C6.3,14.4,4.6,13.2,2.6,11.8L2.6,11.8z M2.6,11.8"/>
		<path class="st0" d="M25.8,11.8c-2,1.3-3.7,2.5-5.1,3.5l6.5,6.5V10.5C26.9,11,26.4,11.4,25.8,11.8L25.8,11.8z M25.8,11.8"/>
		<path class="st0" d="M24.9,3.9H3.4c-0.8,0-1.3,0.3-1.7,0.8C1.3,5.1,1.1,5.8,1.1,6.5c0,0.6,0.3,1.3,0.8,2C2.4,9.3,3,9.8,3.6,10.2
			c0.3,0.2,1.3,0.9,3,2.1c0.9,0.6,1.7,1.2,2.4,1.6c0.6,0.4,1.1,0.7,1.5,1c0,0,0.1,0.1,0.2,0.2c0.1,0.1,0.2,0.2,0.4,0.3
			c0.3,0.2,0.6,0.4,0.8,0.6c0.2,0.1,0.5,0.3,0.8,0.5c0.3,0.2,0.6,0.3,0.8,0.4c0.3,0.1,0.5,0.1,0.7,0.1h0c0.2,0,0.5,0,0.7-0.1
			c0.3-0.1,0.5-0.2,0.8-0.4c0.3-0.2,0.6-0.3,0.8-0.5c0.2-0.1,0.5-0.3,0.8-0.6c0.2-0.1,0.3-0.2,0.4-0.3c0.1-0.1,0.2-0.1,0.2-0.2
			c0.3-0.2,0.8-0.6,1.5-1c1.2-0.8,3-2.1,5.4-3.7c0.7-0.5,1.3-1.1,1.8-1.8C27,7.7,27.3,7,27.3,6.2c0-0.6-0.2-1.2-0.7-1.7
			C26.1,4.1,25.6,3.9,24.9,3.9L24.9,3.9z M24.9,3.9"/>
	</g>
</g>
</svg>
