<?xml version="1.0" encoding="utf-8"?>
<!-- Generator: Adobe Illustrator 19.0.1, SVG Export Plug-In . SVG Version: 6.00 Build 0)  -->
<svg version="1.1" id="Слой_1" xmlns="http://www.w3.org/2000/svg" xmlns:xlink="http://www.w3.org/1999/xlink" x="0px" y="0px"
	 viewBox="0 0 48 44" style="enable-background:new 0 0 48 44;" xml:space="preserve">
<style type="text/css">
	.st0{fill:#B9B9B9;}
</style>
<g>
	<path class="st0" d="M47.7,12l-6.2-7.4c-2.3-2.8-5.8-4.4-9.4-4.4H15.9c-3.6,0-7.1,1.6-9.4,4.4L0.3,12c-0.2,0.2-0.3,0.5-0.2,0.8
		c0.1,0.3,0.3,0.5,0.5,0.7l8.9,4.1v25.3c0,0.5,0.4,1,1,1h27.2c0.5,0,1-0.4,1-1V17.6l8.7-4.1c0.3-0.1,0.5-0.4,0.5-0.7
		C47.9,12.5,47.9,12.2,47.7,12L47.7,12z M29.1,2c-0.5,2.4-2.6,4.1-5.1,4.1c-2.5,0-4.6-1.7-5.1-4.1H29.1z M38.6,15.5v-0.9
		c0-0.5-0.4-1-1-1c-0.5,0-1,0.4-1,1v27.4H11.4V14.5c0-0.5-0.4-1-1-1c-0.5,0-1,0.4-1,1v0.9l-7-3.2l5.4-6.5c2-2.4,4.9-3.7,7.9-3.7H17
		l0,0c0.2,1.5,1,2.9,2.1,4c1.3,1.3,3.1,2,5,2c1.9,0,3.6-0.7,5-2c1.1-1.1,1.8-2.5,2.1-4l0,0h1.1c3.1,0,6,1.4,7.9,3.7l5.4,6.5
		L38.6,15.5z M38.6,15.5"/>
	<path class="st0" d="M13.9,24.3c-0.5,0-1,0.4-1,1v14.4c0,0.5,0.4,1,1,1c0.5,0,1-0.4,1-1V25.3C14.9,24.8,14.5,24.3,13.9,24.3
		L13.9,24.3z M13.9,24.3"/>
	<path class="st0" d="M13.9,18.7c-0.5,0-1,0.4-1,1v2.1c0,0.5,0.4,1,1,1c0.5,0,1-0.4,1-1v-2.1C14.9,19.2,14.5,18.7,13.9,18.7
		L13.9,18.7z M13.9,18.7"/>
</g>
</svg>
