<?xml version="1.0" encoding="utf-8"?>
<!-- Generator: Adobe Illustrator 19.0.1, SVG Export Plug-In . SVG Version: 6.00 Build 0)  -->
<svg version="1.1" id="Слой_1" xmlns="http://www.w3.org/2000/svg" xmlns:xlink="http://www.w3.org/1999/xlink" x="0px" y="0px"
	 viewBox="0 0 67 57" style="enable-background:new 0 0 67 57;" xml:space="preserve">
<style type="text/css">
	.st0{fill-rule:evenodd;clip-rule:evenodd;fill:#9ABB33;}
</style>
<g>
	<g>
		<path class="st0" d="M33.5,14.9c-9.2,0-16.7,7.5-16.7,16.7c0,9.2,7.5,16.7,16.7,16.7c9.2,0,16.7-7.5,16.7-16.7
			C50.2,22.4,42.7,14.9,33.5,14.9L33.5,14.9z M43,39.8c-4.5,5.3-12.4,5.9-17.7,1.4c-5.3-4.5-5.9-12.4-1.4-17.7
			c4.5-5.3,12.4-5.9,17.7-1.4C46.9,26.6,47.5,34.5,43,39.8L43,39.8z M43,39.8"/>
		<path class="st0" d="M33.5,23.3c-4.6,0-8.4,3.7-8.4,8.4c0,0.6,0.5,1.1,1,1.1c0.6,0,1-0.5,1-1.1c0-3.5,2.8-6.3,6.3-6.3
			c0.6,0,1-0.5,1-1.1C34.5,23.7,34.1,23.3,33.5,23.3L33.5,23.3z M33.5,23.3"/>
		<path class="st0" d="M61.7,12.9l-9.1-1.5l-2.9-7.2c-1-2.4-3.2-3.9-5.8-3.9H23c-2.6,0-4.9,1.6-5.8,3.9l-2.9,7.2l-9.1,1.5
			c-3,0.5-5.2,3.1-5.2,6.2v31.4c0,3.5,2.8,6.3,6.3,6.3h54.4c3.5,0,6.3-2.8,6.3-6.3V19.1C66.9,16,64.7,13.4,61.7,12.9L61.7,12.9z
			 M62.8,50.4c0,1.2-0.9,2.1-2.1,2.1H6.3c-1.2,0-2.1-0.9-2.1-2.1V19.1c0-1,0.7-1.9,1.7-2.1l11.4-1.9l3.7-9.4C21.4,5,22.2,4.5,23,4.5
			H44c0.8,0,1.6,0.5,1.9,1.3l3.7,9.4L61,17c1,0.2,1.7,1,1.7,2.1V50.4z M62.8,50.4"/>
	</g>
</g>
</svg>
