<?xml version="1.0" encoding="utf-8"?>
<!-- Generator: Adobe Illustrator 19.0.1, SVG Export Plug-In . SVG Version: 6.00 Build 0)  -->
<svg version="1.1" id="Слой_1" xmlns="http://www.w3.org/2000/svg" xmlns:xlink="http://www.w3.org/1999/xlink" x="0px" y="0px"
	 viewBox="0 0 22.7 22.7" style="enable-background:new 0 0 22.7 22.7;" xml:space="preserve">
<style type="text/css">
	.st0{fill:#6E6E6E;}
</style>
<g>
	<g>
		<g>
			<g>
				<path class="st0" d="M2.7,2.6c-3.3,3.3-3.3,8.6,0,11.9s8.6,3.3,11.9,0c3.3-3.3,3.3-8.6,0-11.9S5.9-0.7,2.7,2.6z M13.1,13
					c-2.5,2.5-6.5,2.5-9,0s-2.5-6.5,0-9s6.5-2.5,9,0S15.6,10.5,13.1,13z"/>
			</g>
		</g>
		<g>
			<path class="st0" d="M21.9,21.9L21.9,21.9c-0.8,0.8-2.2,0.8-3,0L13.9,17l3-3l4.9,4.9C22.7,19.8,22.7,21.1,21.9,21.9z"/>
		</g>
	</g>
</g>
</svg>
