<?xml version="1.0" encoding="utf-8"?>
<!-- Generator: Adobe Illustrator 19.0.1, SVG Export Plug-In . SVG Version: 6.00 Build 0)  -->
<svg version="1.1" id="Слой_1" xmlns="http://www.w3.org/2000/svg" xmlns:xlink="http://www.w3.org/1999/xlink" x="0px" y="0px"
	 viewBox="0 0 22 22" style="enable-background:new 0 0 22 22;" xml:space="preserve">
<style type="text/css">
	.st0{fill:#6F6E6E;}
</style>
<g>
	<path class="st0" d="M21.4,18.5l-5-5c-0.8,1.2-1.7,2.2-2.9,2.9l5,5c0.8,0.8,2.1,0.8,2.9,0C22.2,20.6,22.2,19.3,21.4,18.5
			L21.4,18.5z M21.4,18.5"/>
	<path class="st0" d="M16.5,8.2c0-4.6-3.7-8.2-8.2-8.2C3.7,0,0,3.7,0,8.2c0,4.6,3.7,8.2,8.2,8.2C12.8,16.5,16.5,12.8,16.5,8.2
		L16.5,8.2z M8.2,14.4c-3.4,0-6.2-2.8-6.2-6.2c0-3.4,2.8-6.2,6.2-6.2c3.4,0,6.2,2.8,6.2,6.2C14.4,11.7,11.7,14.4,8.2,14.4L8.2,14.4z
		 M8.2,14.4"/>
	<path class="st0" d="M3.4,8.2h1.4c0-1.9,1.5-3.4,3.4-3.4V3.4C5.6,3.4,3.4,5.6,3.4,8.2L3.4,8.2z M3.4,8.2"/>
</g>
</svg>
