<svg xmlns="http://www.w3.org/2000/svg" xmlns:xlink="http://www.w3.org/1999/xlink" preserveAspectRatio="xMidYMid" width="24" height="24" viewBox="0 0 24 24">
  <defs>
    <style>

      .cls-2 {
        fill: #82bd27;
      }
    </style>
  </defs>
  <path d="M22.000,-0.000 C22.000,-0.000 2.000,-0.000 2.000,-0.000 C0.895,-0.000 -0.000,0.895 -0.000,2.000 C-0.000,2.000 -0.000,22.000 -0.000,22.000 C-0.000,23.105 0.895,24.000 2.000,24.000 C2.000,24.000 22.000,24.000 22.000,24.000 C23.105,24.000 24.000,23.105 24.000,22.000 C24.000,22.000 24.000,2.000 24.000,2.000 C24.000,0.895 23.105,-0.000 22.000,-0.000 ZM12.500,7.500 C14.706,7.500 16.500,9.294 16.500,11.500 C16.500,13.706 14.706,15.500 12.500,15.500 C10.294,15.500 8.500,13.706 8.500,11.500 C8.500,9.294 10.294,7.500 12.500,7.500 ZM21.000,21.000 C21.000,21.000 3.000,21.000 3.000,21.000 C3.000,21.000 3.000,10.000 3.000,10.000 C3.000,10.000 5.666,10.000 5.666,10.000 C5.560,10.484 5.500,10.985 5.500,11.500 C5.500,15.359 8.640,18.500 12.500,18.500 C16.359,18.500 19.500,15.359 19.500,11.500 C19.500,10.981 19.408,10.484 19.279,10.000 C19.279,10.000 21.000,10.000 21.000,10.000 C21.000,10.000 21.000,21.000 21.000,21.000 ZM21.000,5.667 C21.000,6.403 20.403,7.000 19.667,7.000 C19.667,7.000 18.333,7.000 18.333,7.000 C17.597,7.000 17.000,6.403 17.000,5.667 C17.000,5.667 17.000,4.333 17.000,4.333 C17.000,3.597 17.597,3.000 18.333,3.000 C18.333,3.000 19.667,3.000 19.667,3.000 C20.403,3.000 21.000,3.597 21.000,4.333 C21.000,4.333 21.000,5.667 21.000,5.667 Z" id="path-1" class="cls-2" fill-rule="evenodd"/>
</svg>
