<svg xmlns="http://www.w3.org/2000/svg" xmlns:xlink="http://www.w3.org/1999/xlink" preserveAspectRatio="xMidYMid" width="20" height="16" viewBox="0 0 20 16">
  <defs>
    <style>

      .cls-2 {
        fill: #3f4143;
      }
    </style>
  </defs>
  <path d="M19.995,1.899 C19.259,2.220 18.469,2.437 17.639,2.534 C18.486,2.035 19.136,1.244 19.442,0.301 C18.650,0.764 17.772,1.100 16.837,1.281 C16.089,0.496 15.022,0.006 13.843,0.006 C11.577,0.006 9.740,1.813 9.740,4.042 C9.740,4.358 9.776,4.666 9.846,4.962 C6.436,4.793 3.413,3.187 1.389,0.745 C1.036,1.341 0.834,2.034 0.834,2.774 C0.834,4.174 1.558,5.409 2.659,6.133 C1.987,6.112 1.354,5.931 0.801,5.628 C0.801,5.645 0.801,5.662 0.801,5.679 C0.801,7.635 2.215,9.266 4.092,9.636 C3.747,9.729 3.385,9.778 3.011,9.778 C2.746,9.778 2.489,9.753 2.239,9.706 C2.761,11.309 4.276,12.476 6.071,12.508 C4.667,13.591 2.898,14.236 0.976,14.236 C0.645,14.236 0.318,14.217 -0.003,14.180 C1.813,15.325 3.970,15.993 6.286,15.993 C13.833,15.993 17.960,9.843 17.960,4.510 C17.960,4.335 17.956,4.161 17.948,3.988 C18.749,3.419 19.445,2.708 19.995,1.899 Z" id="path-1" class="cls-2" fill-rule="evenodd"/>
</svg>
