<svg xmlns="http://www.w3.org/2000/svg" xmlns:xlink="http://www.w3.org/1999/xlink" preserveAspectRatio="xMidYMid" width="10" height="21" viewBox="0 0 10 21">
  <defs>
    <style>

      .cls-2 {
        fill: #3f4143;
      }
    </style>
  </defs>
  <path d="M6.497,20.993 C6.497,20.993 6.497,11.418 6.497,11.418 C6.497,11.418 9.451,11.418 9.451,11.418 C9.451,11.418 9.893,7.686 9.893,7.686 C9.893,7.686 6.497,7.686 6.497,7.686 C6.497,7.686 6.497,5.303 6.497,5.303 C6.497,4.223 6.772,3.487 8.196,3.487 C8.196,3.487 10.012,3.486 10.012,3.486 C10.012,3.486 10.012,0.148 10.012,0.148 C9.698,0.103 8.620,0.001 7.366,0.001 C4.748,0.001 2.955,1.740 2.955,4.934 C2.955,4.934 2.955,7.686 2.955,7.686 C2.955,7.686 -0.006,7.686 -0.006,7.686 C-0.006,7.686 -0.006,11.418 -0.006,11.418 C-0.006,11.418 2.955,11.418 2.955,11.418 C2.955,11.418 2.955,20.993 2.955,20.993 C2.955,20.993 6.497,20.993 6.497,20.993 Z" id="path-1" class="cls-2" fill-rule="evenodd"/>
</svg>
